<svg width="14" height="22" viewBox="0 0 14 22" fill="none" xmlns="http://www.w3.org/2000/svg">
<ellipse cx="6.97792" cy="6.54506" rx="6.04399" ry="5.814" fill="#FFC4C4"/>
<path d="M13.3969 6.54506C13.1469 6.54506 12.8969 6.54506 12.6469 6.54506C12.5637 7.12628 12.3931 7.67636 12.1493 8.17912C11.1689 10.2048 9.06468 11.3748 6.97792 11.3591C6.97792 11.3591 6.97792 11.3591 6.97792 11.3591C4.34014 11.4231 1.85493 9.1879 1.86449 6.54506C1.75289 3.90755 4.19422 1.48312 6.97792 1.45329C9.18119 1.34778 11.4523 2.71128 12.2859 4.86398C12.4964 5.39519 12.6194 5.96394 12.6469 6.54506C12.8969 6.54506 13.1469 6.54506 13.3969 6.54506C13.425 5.88241 13.3418 5.21078 13.1474 4.56736C12.3898 1.95957 9.75872 0.0445139 6.97792 0.00884163C3.49461 -0.184454 -0.0217208 2.81591 0.00337389 6.54506C-0.123765 10.2689 3.34868 13.4585 6.97792 13.3591C6.97792 13.3591 6.97792 13.3591 6.97792 13.3591C9.87522 13.4132 12.6732 11.3046 13.284 8.5698C13.4452 7.89793 13.4807 7.20762 13.3969 6.54506ZM12.6469 6.54506H13.3969H12.6469Z" fill="black"/>
<ellipse cx="6.50423" cy="5.53182" rx="1.30141" ry="1.28579" fill="black"/>
<ellipse cx="9.64998" cy="5.77042" rx="1.30141" ry="1.28579" fill="black"/>
<mask id="path-5-inside-1_10_92" fill="white">
<path d="M11.7261 17.1706C11.7261 21.377 9.23497 21.2268 6.16197 21.2268C3.07077 21.0321 0.597809 21.377 0.597809 17.1706C0.597809 15.0964 3.08897 13.4149 6.16197 13.4149C9.23497 13.4149 11.7261 15.0964 11.7261 17.1706Z"/>
</mask>
<path d="M11.7261 17.1706C11.7261 21.377 9.23497 21.2268 6.16197 21.2268C3.07077 21.0321 0.597809 21.377 0.597809 17.1706C0.597809 15.0964 3.08897 13.4149 6.16197 13.4149C9.23497 13.4149 11.7261 15.0964 11.7261 17.1706Z" fill="#FFC4C4"/>
<path d="M12.4761 17.1706C11.9761 17.1706 11.4761 17.1706 10.9761 17.1706C10.8099 17.6508 10.6229 18.1044 10.4076 18.4599C10.1952 18.8159 9.94845 19.0536 9.75004 19.1309C9.54998 19.2091 9.39593 19.2096 9.11046 19.2351C8.54515 19.2824 7.5967 19.2314 6.57614 19.2273C6.43923 19.2271 6.30295 19.2269 6.16197 19.2272L6.28763 19.2311C4.87604 19.1563 3.43939 19.1359 3.02016 18.9198C2.8371 18.8261 2.8215 18.8609 2.67155 18.549C2.54256 18.2507 2.45456 17.7337 2.4302 17.1706C2.12919 16.4735 4.14039 14.8963 6.16197 14.8316C7.75303 14.6856 9.5656 15.0926 10.5136 16.1874C10.7563 16.4753 10.9206 16.8023 10.9761 17.1706C11.4761 17.1706 11.9761 17.1706 12.4761 17.1706C12.5354 16.5 12.3674 15.8019 12.0552 15.2159C10.7894 13.0095 8.39511 12.1626 6.16197 11.9982C3.51435 11.9102 -0.614736 12.5541 -1.23458 17.1706C-1.25474 17.9706 -1.23377 18.8169 -0.921228 19.803C-0.646392 20.7746 0.248721 21.9483 1.30235 22.4299C3.38632 23.3423 4.76456 23.0817 6.03631 23.2225L6.16197 23.2264C6.29711 23.2267 6.43134 23.2271 6.57032 23.2273C7.61363 23.211 8.77744 23.2265 10.2047 22.6647C11.7304 22.1706 12.8674 20.2294 12.7517 18.9752C12.7578 18.3185 12.6415 17.7249 12.4761 17.1706ZM10.9761 17.1706H12.4761H10.9761Z" fill="black" mask="url(#path-5-inside-1_10_92)"/>
</svg>
