<svg width="17" height="26" viewBox="0 0 17 26" fill="none" xmlns="http://www.w3.org/2000/svg">
<path d="M6.95902 2.68124C9.22344 2.1956 11.5686 3.70677 12.1039 6.20313C12.6391 8.69938 11.1198 11.0385 8.85552 11.5241C6.59122 12.0097 4.24631 10.4993 3.71081 8.00317C3.17543 5.50684 4.69465 3.16692 6.95902 2.68124Z" stroke="black" stroke-width="3"/>
<path d="M8.13477 15.8442C10.1225 15.8442 11.8552 16.3908 13.0479 17.1958C14.2493 18.0068 14.7695 18.9681 14.7695 19.8354C14.7695 21.2411 14.559 22.1311 14.2822 22.6987C14.0247 23.2269 13.6805 23.539 13.2324 23.7563C12.7418 23.9942 12.0809 24.138 11.1855 24.2075C10.2953 24.2766 9.31344 24.2644 8.16992 24.2641C6.96533 24.1897 6.04074 24.1757 5.09375 24.0893C4.17147 24.0053 3.50053 23.8683 3.00195 23.6382C2.55274 23.4307 2.22422 23.14 1.97852 22.647C1.7106 22.1093 1.50004 21.2444 1.5 19.8354C1.5 18.9681 2.02024 18.0068 3.22168 17.1958C4.41435 16.3908 6.14702 15.8442 8.13477 15.8442Z" stroke="black" stroke-width="3"/>
</svg>
